<svg width="86" height="86" viewBox="0 0 86 86" fill="none" xmlns="http://www.w3.org/2000/svg">
<path opacity="0.92" fill-rule="evenodd" clip-rule="evenodd" d="M85.6034 42.7596C85.6034 55.1329 80.3847 66.2437 71.9674 74.0718C67.9272 77.7753 63.2135 80.8055 57.9948 82.7415C53.2812 84.5091 48.1466 85.5192 42.8438 85.5192C40.9078 85.5192 39.056 85.3508 37.2042 85.1825C35.5208 84.93 33.8373 84.6775 32.238 84.2566C28.3661 83.2466 24.7467 81.7314 21.3798 79.7955C19.2755 78.5329 17.2553 77.1861 15.3194 75.5868C10.8582 71.8833 7.23883 67.2538 4.62948 62.1193C2.94604 58.8365 1.76762 55.3855 0.925896 51.6819C0.336688 48.82 0 45.874 0 42.8438C0 34.4265 2.441 26.5143 6.64962 19.8647C8.41724 17.087 10.5216 14.4777 12.9626 12.1208C20.7064 4.62948 31.228 0 42.7596 0C43.6855 0 44.6114 -7.70747e-06 45.5373 0.0841647C50.4193 0.420855 55.0488 1.5151 59.3416 3.28272C60.0991 3.61941 60.8567 3.9561 61.5301 4.29279C64.6444 5.80789 67.5063 7.65968 70.1156 9.93234C71.0415 10.6899 71.8833 11.4475 72.6408 12.205C72.9775 12.4575 73.23 12.7942 73.4825 13.1309C81.0581 20.7906 85.6034 31.228 85.6034 42.7596Z" fill="url(#paint0_radial_6_495)"/>
<path fill-rule="evenodd" clip-rule="evenodd" d="M82.6573 42.7596C82.6573 54.2912 77.7754 64.6444 69.9473 71.9674C66.2437 75.4185 61.7826 78.1962 56.9848 80.048C52.6078 81.7314 47.81 82.6573 42.8438 82.6573C41.0762 82.6573 39.3085 82.5731 37.6251 82.3206C36.0258 82.1523 34.5107 81.8156 32.9956 81.3947C29.3762 80.4688 26.0093 79.0379 22.8949 77.2703C20.8748 76.0918 19.023 74.8293 17.2554 73.3142C13.1309 69.8631 9.67984 65.5703 7.23884 60.7725C5.72373 57.7422 4.54532 54.4595 3.78777 51.0085C3.19856 48.3149 2.94604 45.6214 2.94604 42.7596C2.94604 34.8473 5.2187 27.5243 9.17481 21.3798C10.8583 18.7704 12.7942 16.3294 15.0669 14.1409C22.2215 7.15461 32.0697 2.86182 42.8438 2.86182C43.6855 2.86182 44.6114 2.86182 45.4531 2.94599C49.9984 3.28268 54.2912 4.29275 58.2473 5.97619C58.9207 6.22871 59.5941 6.56541 60.2675 6.9021C63.1293 8.33303 65.8229 10.1006 68.348 12.1208C69.1898 12.7942 69.9473 13.5517 70.7049 14.3093C70.9574 14.5618 71.2941 14.8143 71.5466 15.151C78.4487 22.3057 82.6573 32.0697 82.6573 42.7596Z" fill="url(#paint1_radial_6_495)"/>
<path opacity="0.4" fill-rule="evenodd" clip-rule="evenodd" d="M82.6576 42.7594C82.6576 54.2911 77.7756 64.6443 69.9476 71.9673C66.244 75.4184 61.7828 78.1961 56.985 80.0479C52.608 81.7313 47.8102 82.6572 42.844 82.6572C41.0764 82.6572 39.3088 82.573 37.6253 82.3205C32.3225 81.6471 27.3563 79.8795 22.8952 77.2701C24.2419 76.9335 25.5045 76.5126 26.8513 76.1759C30.0498 75.3342 33.08 74.4083 36.2786 74.0716C37.5412 73.9033 39.6455 73.3982 39.6455 71.7989C39.6455 71.3781 39.5613 71.2097 39.8138 70.9572C40.1505 70.7047 40.4872 70.7889 40.8239 70.7047C41.7498 70.5364 42.5073 69.5263 43.0966 68.8529C44.0225 67.7587 45.1167 66.6644 46.2109 65.7385C48.3153 63.8867 51.1771 62.9608 52.5239 60.2673C52.8606 59.5098 52.9447 58.7522 53.1131 57.9947C53.2814 57.0688 53.9548 56.4796 54.7965 56.0587C55.7224 55.4695 56.8167 55.3011 57.6584 54.5436C58.5001 53.8702 58.8368 52.776 59.1735 51.7659C59.6785 50.1666 59.5944 48.4832 59.8469 46.7997C59.931 45.958 60.1836 45.1163 60.2677 44.2746C60.2677 43.4328 60.0152 42.8436 59.6785 42.0861C59.2577 40.8235 58.5843 39.4767 58.0793 38.2141C57.9109 37.7091 57.5742 37.3724 57.1534 37.0357C56.5642 36.5307 56.1433 35.9415 55.5541 35.4365C55.1332 35.0998 54.6282 34.8472 54.2915 34.5106C53.9548 34.258 53.7023 33.8372 53.4498 33.5005C52.9447 32.9954 52.4397 32.4062 51.7663 31.9854C50.167 31.1437 49.2411 29.5444 47.3894 29.2077C45.1167 28.7868 43.2649 26.43 40.9081 27.2717C39.393 27.7768 37.8779 28.3659 36.1944 28.7868C35.1843 29.0393 34.0059 29.0393 32.9959 29.376C32.4067 29.6285 31.7333 30.1336 31.3124 30.6386C30.639 31.3962 30.3865 32.4062 29.7973 33.1638C29.3764 33.753 29.1239 34.3422 28.7031 35.0156C28.0297 36.2782 28.0297 37.5407 28.0297 38.9717C28.0297 39.7292 27.9455 40.571 28.0297 41.3285C28.1139 42.2544 28.5347 42.9278 29.1239 43.6853C29.4606 44.1062 29.7131 44.8637 30.134 45.2004C30.3865 45.3688 30.5549 45.2846 30.8074 45.453C31.2282 45.6213 31.3966 45.7896 31.7333 46.0422C32.7433 46.7997 33.8376 47.5573 35.1002 47.8098C35.7736 47.9781 36.3628 48.0623 36.952 48.3148C37.457 48.5673 38.0462 48.6515 38.6354 48.7357C39.9822 48.904 41.1606 48.399 42.1707 47.5573C42.844 47.0522 43.2649 46.6314 43.7699 45.958C44.0225 45.6213 44.1908 45.3688 44.6117 45.1163C44.8642 44.9479 45.1167 44.7796 45.4534 44.8638C45.7059 44.8638 45.9584 45.2005 46.2951 45.0321C46.5476 44.8638 46.716 44.1062 46.8001 43.9379C46.9685 43.517 47.0527 43.012 47.221 42.6753C47.5577 42.0019 48.0627 42.1702 48.7361 42.1702C49.157 42.1702 49.7462 42.0861 50.0829 41.7494C50.3354 41.3285 50.2512 40.571 50.0829 40.1501C49.7462 39.5609 48.9886 39.0559 48.5678 38.635C48.2311 38.2983 47.9786 37.8774 47.6419 37.4566C47.1368 36.699 46.8843 35.1839 45.7901 35.0156C45.3692 34.9314 44.78 35.0156 44.3591 35.0156C43.8541 35.0156 43.5174 34.9314 43.0124 34.7631C42.2548 34.5947 41.5815 34.3422 40.7397 34.3422C39.7297 34.3422 38.8879 34.5947 37.962 35.0156C37.5412 35.1839 37.2887 35.0998 36.8678 35.1839C36.4469 35.3523 35.7736 36.194 35.6894 36.699C35.521 37.6249 35.8577 38.4666 36.7836 38.8875C37.0361 38.9717 37.7095 39.0558 37.962 39.3084C38.2146 39.6451 38.0462 40.0659 37.8779 40.4026C37.5412 41.3285 37.7095 42.4228 38.8038 42.5911C39.5613 42.6753 40.3189 42.2544 40.9081 41.9177C41.4131 41.6652 42.339 41.581 42.339 40.9077C42.2548 41.2444 41.7498 41.076 41.4973 41.076C40.9081 41.076 40.5714 41.076 40.1505 40.7393C39.7297 40.4026 39.6455 40.0659 39.4771 39.6451C39.393 39.4767 39.3088 39.14 39.1405 38.9717C39.0563 38.8033 38.7196 38.635 38.7196 38.4666C38.3829 37.7091 40.9081 37.2882 41.3289 37.2041C42.339 37.1199 43.0966 37.7933 43.6858 38.5508C43.9383 38.8875 44.4433 39.3925 44.4433 39.8134C44.4433 40.2343 44.1066 40.9077 43.9383 41.3285C43.7699 41.7494 43.6858 42.0861 43.5174 42.5069C43.3491 43.012 43.0966 43.0961 42.6757 43.3487C42.2548 43.6012 41.9181 43.9379 41.5815 44.2746C41.1606 44.6112 40.6556 44.6954 40.1505 44.7796C39.393 44.9479 38.7196 44.5271 37.962 44.6112C37.2887 44.6112 36.7836 45.0321 36.1944 45.0321C34.8477 45.1163 33.7534 44.9479 33.2484 43.517C33.08 42.9278 33.2484 42.6753 33.5851 42.2544C34.0059 41.8335 33.8376 41.4968 33.6692 40.9918C33.4167 40.4026 33.1642 39.8976 33.08 39.3084C32.9959 38.7192 33.3326 38.0458 33.4167 37.3724C33.5009 36.8674 33.2484 36.1098 33.4167 35.689C33.5851 35.2681 34.4268 34.8472 34.8477 34.5106C35.3527 34.1739 35.9419 34.0055 36.5311 33.6688C37.2045 33.3321 37.7095 33.4163 38.3829 33.3321C38.9721 33.248 39.2246 32.8271 39.7297 32.5746C40.3189 32.3221 41.0764 32.4904 41.6656 32.4904C42.339 32.4904 42.6757 32.7429 43.2649 32.9954C43.8541 33.248 44.275 33.6688 44.9484 33.753C45.7059 33.8372 46.4635 33.6688 47.221 33.753C47.9786 33.8372 48.2311 34.1739 48.8203 34.5947C49.4095 35.0156 49.8304 35.2681 50.3354 35.9415C50.5879 36.2782 50.6721 36.6149 50.9246 36.8674C51.1771 37.2041 51.3455 37.3724 51.5138 37.7933C51.6821 38.2983 52.0188 38.8033 52.1872 39.3925C52.2714 39.7292 52.3555 39.9818 52.3555 40.3184C52.2714 40.7393 52.103 41.1602 52.103 41.581C52.103 42.5911 51.6821 43.3487 51.2613 44.2746C50.8404 45.2005 50.4196 46.1263 49.9987 47.0522C49.7462 47.6414 49.662 48.904 48.8203 49.0724C48.3994 49.1565 47.9786 49.0724 47.5577 49.3249C47.1368 49.5774 47.0527 50.0824 46.716 50.335C46.3793 50.6716 45.9584 50.5033 45.5376 50.5033C44.8642 50.5033 44.275 50.5875 43.6858 50.84C42.9282 51.1767 42.4232 51.8501 41.7498 52.2709C41.1606 52.5235 40.4872 52.8601 39.8138 52.9443C39.3088 53.0285 38.8879 52.9443 38.3829 53.1127C37.2887 53.4494 36.4469 54.1227 35.3527 54.5436C34.511 54.7961 33.5009 55.0486 32.6592 54.9644C32.3225 54.9644 31.9858 54.7961 31.6491 54.7119C31.1441 54.5436 30.5549 54.5436 29.9657 54.3753C29.5448 54.2911 29.1239 54.1227 28.7031 53.9544C28.2822 53.786 28.0297 53.4493 27.6088 53.281C26.6829 52.8601 25.757 52.8601 24.9153 52.1868C23.8211 51.345 22.8952 50.335 21.7168 49.5774C21.2117 49.2407 20.9592 48.8199 20.6225 48.399C20.37 47.9781 20.0333 47.7256 19.6966 47.3889C19.1916 46.8839 18.9391 46.2105 18.6865 45.6213C18.2657 44.6112 17.7607 43.6012 17.3398 42.5069C16.8348 40.9918 16.1614 39.5609 15.8247 37.9616C15.5722 36.6149 15.9089 35.4365 15.9089 34.1739C15.9089 33.8372 15.993 33.5005 15.9089 33.1638C15.8247 32.6588 15.4038 32.3221 15.0671 31.9854C14.0571 30.807 13.1312 29.6285 12.542 28.1134C11.9528 26.5983 11.7002 24.7465 12.1211 23.1473C12.542 21.7163 13.4679 20.9588 14.6463 20.0329C15.7405 19.1912 17.0873 18.5178 18.3499 17.9286C18.9391 17.5919 19.4441 17.2552 20.0333 17.0027C20.6225 16.7502 21.3801 16.666 22.0534 16.4977C22.6427 16.3293 23.0635 16.3293 23.5686 15.9084C24.0736 15.5717 24.6628 15.1509 25.0837 14.73C25.6729 14.225 26.0937 13.6358 26.9354 13.4674C27.9455 13.2149 29.1239 12.8782 30.134 12.6257C31.4808 12.3732 33.08 12.7099 34.4268 12.8782C35.7736 13.0466 37.0361 13.0466 38.3829 13.0466C39.4771 13.0466 40.5714 12.8782 41.6656 12.794C42.0865 12.794 42.5074 12.8782 42.9282 12.794C43.6016 12.794 44.1908 12.4574 44.8642 12.289C46.1268 11.9523 47.221 11.3631 48.4836 10.9423C49.4095 10.6056 50.3354 10.6898 51.2613 10.5214C52.2714 10.3531 53.2814 10.0164 54.3757 9.93219C55.3016 9.93219 56.2275 9.5955 57.0692 10.0164C58.5843 10.9423 59.5102 12.5415 61.0253 13.4674C62.6246 14.3933 64.3922 15.0667 66.0756 15.7401C66.6648 15.9926 67.3382 15.6559 67.8433 15.9084C68.0958 15.9926 68.4325 16.4135 68.6008 16.666C68.8533 16.4976 68.7692 16.161 68.7692 15.9084C68.7692 15.4876 69.0217 15.1509 69.0217 14.73C69.0217 14.225 69.1058 13.6358 69.0217 13.1308C68.9375 12.8782 68.6008 12.289 68.6008 11.8682C69.4425 12.5415 70.2001 13.2991 70.9576 14.0566C78.1123 21.548 82.6576 31.6487 82.6576 42.7594Z" fill="url(#paint2_radial_6_495)"/>
<path opacity="0.3" fill-rule="evenodd" clip-rule="evenodd" d="M16.2452 54.8804C15.9926 55.7221 15.9085 56.648 15.8243 57.5739C16.0768 57.4898 16.4135 58.079 16.666 58.1632C17.1711 58.3315 17.5919 58.3315 18.0128 58.584C18.4336 58.8365 18.8545 59.4257 19.2754 59.5099C19.5279 59.5941 19.9487 59.5099 20.2854 59.5099C20.9588 59.5099 21.548 59.5099 22.1372 59.6783C22.8106 59.8466 23.6523 60.0149 24.3257 59.9308C24.7466 59.8466 25.5041 59.6783 25.8408 59.3416C26.1775 59.0049 26.3459 58.1632 26.43 57.6581C26.5142 56.2272 25.42 54.7963 24.3257 53.9545C23.7365 53.5337 23.1473 53.5337 22.4739 53.197C21.7164 52.7761 21.043 52.6078 20.2013 52.3552C19.6962 52.1869 19.0228 52.0186 18.5178 52.0186C18.0128 52.0186 17.4236 52.3552 17.0027 52.4394C16.4977 52.6078 16.0768 52.6078 15.7401 53.0286C15.4034 53.6178 15.5718 54.2912 16.2452 54.8804Z" fill="url(#paint3_linear_6_495)"/>
<path opacity="0.3" fill-rule="evenodd" clip-rule="evenodd" d="M27.5243 59.9307C27.2718 60.2674 24.9149 62.2875 26.0933 63.1292C26.1775 63.2134 26.6826 63.2976 26.7667 63.2976C27.1034 63.3817 27.1876 63.2976 27.5243 63.1292C28.1135 62.7925 28.1977 62.2033 28.0293 61.53C28.0293 61.3616 27.861 61.0249 27.7768 60.8566C27.6926 60.604 27.4401 60.6041 27.3559 60.2674L27.5243 59.9307Z" fill="url(#paint4_linear_6_495)"/>
<path opacity="0.3" fill-rule="evenodd" clip-rule="evenodd" d="M41.0762 8.24893C41.4971 7.99641 42.8438 7.23887 43.6014 7.1547C43.8539 7.1547 44.1906 7.23886 44.4431 7.23886C45.0323 7.23886 45.5374 7.1547 45.9582 7.57556C46.2949 7.91225 46.4633 8.24893 46.2107 8.66979C45.874 9.259 45.0323 9.67986 44.4431 9.93238C43.1805 10.6899 41.4971 11.3633 39.982 11.195C38.8036 11.1108 37.7093 10.1849 36.6151 9.59569C35.8575 9.17483 34.4266 8.41728 35.3525 7.49138C36.11 6.73383 37.2885 6.31297 38.3827 6.22879C38.8877 6.22879 40.0661 6.06046 40.4028 6.31297C40.8237 6.64966 40.4028 7.99642 41.2446 7.91224L41.0762 8.24893Z" fill="url(#paint5_linear_6_495)"/>
<path fill-rule="evenodd" clip-rule="evenodd" d="M2.35704 34.6789C2.94625 42.8436 21.9692 29.6286 40.403 23.8207C62.0353 16.9185 78.4489 31.9854 80.8058 31.1437C84.5935 29.8811 69.19 0.0840423 44.5274 0.504905C16.7505 0.841594 1.34697 21.548 2.35704 34.6789Z" fill="url(#paint6_linear_6_495)"/>
<path opacity="0.5" fill-rule="evenodd" clip-rule="evenodd" d="M0.420898 48.7361L1.76766 54.9649C1.76766 54.9649 9.17483 59.3419 26.4302 57.7426C43.6855 56.1433 47.7258 47.726 54.4596 42.844C61.1934 37.962 74.2401 34.0901 77.607 30.2182C80.9739 26.4304 78.1121 18.7707 78.1121 18.7707L76.7653 16.9189C76.7653 16.9189 79.2063 23.4844 76.2603 28.2822C73.3984 33.0801 60.52 35.3527 53.5337 41.4973C46.5474 47.6419 32.3223 52.3555 20.1173 52.4397C8.16476 52.5239 0.420898 48.7361 0.420898 48.7361Z" fill="#BDFFE8" fill-opacity="0.5"/>
<path opacity="0.5" fill-rule="evenodd" clip-rule="evenodd" d="M6.14478 64.897L8.83829 68.8531C8.83829 68.8531 21.2116 72.4725 39.8138 68.8531C58.4159 65.2337 72.4727 54.7121 78.9539 48.7359C85.5194 42.7596 84.6777 34.4265 84.6777 34.4265L84.0885 31.9014C84.0885 31.9014 82.91 40.5711 75.6712 48.7359C68.4324 56.9006 56.3116 64.3078 38.8879 67.338C21.5483 70.4524 6.14478 64.897 6.14478 64.897Z" fill="#BDFFE8" fill-opacity="0.5"/>
<path opacity="0.5" fill-rule="evenodd" clip-rule="evenodd" d="M2.94604 27.2716C2.94604 27.2716 27.2719 35.6047 46.0423 31.9011C64.8128 28.2817 69.8631 16.1609 70.1998 9.93209L66.7488 7.32275C66.7488 7.32275 66.8329 19.7803 54.9646 27.3558C43.0963 34.8471 12.6259 30.386 4.46115 23.9047L2.94604 27.2716Z" fill="#BDFFE8" fill-opacity="0.5"/>
<path fill-rule="evenodd" clip-rule="evenodd" d="M5.55566 41.9179C5.80818 43.433 9.17508 41.3287 11.7844 36.2783C14.3096 31.228 14.8146 20.7064 13.4679 19.8647C12.2053 18.8546 3.70387 31.5647 5.55566 41.9179Z" fill="white"/>
<path fill-rule="evenodd" clip-rule="evenodd" d="M5.80787 44.1066C4.04025 44.4433 4.12442 47.8944 5.21866 49.3253C6.31291 50.7563 7.74384 50.0829 7.82801 47.0527C7.91218 45.2851 7.2388 43.8541 5.80787 44.1066Z" fill="white"/>
<path fill-rule="evenodd" clip-rule="evenodd" d="M56.3113 4.12451C56.3113 4.12451 57.9947 4.54537 58.4998 6.81803C58.4998 6.9022 56.8163 6.39717 56.3113 4.12451Z" fill="white"/>
<path fill-rule="evenodd" clip-rule="evenodd" d="M25.2517 4.88199C25.2517 4.88199 26.5143 3.3669 29.0395 2.69352C31.0596 2.18848 32.238 2.27265 32.6589 2.18848C32.6589 2.18848 28.3661 5.13451 25.2517 4.88199Z" fill="white"/>
<defs>
<radialGradient id="paint0_radial_6_495" cx="0" cy="0" r="1" gradientUnits="userSpaceOnUse" gradientTransform="translate(42.8048 42.7716) scale(42.7928 42.7929)">
<stop stop-color="#004858"/>
<stop offset="1" stop-color="#008BAB"/>
</radialGradient>
<radialGradient id="paint1_radial_6_495" cx="0" cy="0" r="1" gradientUnits="userSpaceOnUse" gradientTransform="translate(31.5042 31.4587) scale(58.494 58.494)">
<stop offset="0.00558659" stop-color="#00CEC0"/>
<stop offset="0.2576" stop-color="#00CCC0"/>
<stop offset="0.3833" stop-color="#00C4C1"/>
<stop offset="0.4811" stop-color="#00B7C2"/>
<stop offset="0.5645" stop-color="#00A4C4"/>
<stop offset="0.6387" stop-color="#008CC6"/>
<stop offset="0.7054" stop-color="#006EC8"/>
<stop offset="0.7179" stop-color="#0068C9"/>
<stop offset="0.7438" stop-color="#0767CB"/>
<stop offset="0.7813" stop-color="#1A66CF"/>
<stop offset="0.8259" stop-color="#3A63D6"/>
<stop offset="0.8759" stop-color="#6660E0"/>
<stop offset="0.9304" stop-color="#9E5BEC"/>
<stop offset="0.9879" stop-color="#E255FC"/>
<stop offset="1" stop-color="#F154FF"/>
</radialGradient>
<radialGradient id="paint2_radial_6_495" cx="0" cy="0" r="1" gradientUnits="userSpaceOnUse" gradientTransform="translate(47.243 46.3369) scale(35.8777 35.8777)">
<stop stop-color="#1372B3"/>
<stop offset="1" stop-color="white"/>
</radialGradient>
<linearGradient id="paint3_linear_6_495" x1="15.5944" y1="56.0162" x2="26.4427" y2="56.0162" gradientUnits="userSpaceOnUse">
<stop stop-color="#B8C2FF"/>
<stop offset="1" stop-color="#7D72B3"/>
</linearGradient>
<linearGradient id="paint4_linear_6_495" x1="25.7256" y1="61.6425" x2="27.9606" y2="61.6425" gradientUnits="userSpaceOnUse">
<stop stop-color="#B8C2FF"/>
<stop offset="1" stop-color="#7D72B3"/>
</linearGradient>
<linearGradient id="paint5_linear_6_495" x1="35.1213" y1="8.78578" x2="46.355" y2="8.78578" gradientUnits="userSpaceOnUse">
<stop stop-color="#B8C2FF"/>
<stop offset="1" stop-color="#7D72B3"/>
</linearGradient>
<linearGradient id="paint6_linear_6_495" x1="18.2658" y1="6.75768" x2="60.1834" y2="60.5198" gradientUnits="userSpaceOnUse">
<stop offset="0.0167598" stop-color="#B1FDF9"/>
<stop offset="1" stop-color="#37C7D1" stop-opacity="0"/>
</linearGradient>
</defs>
</svg>
